<svg width="169" height="26" viewBox="0 0 169 26" fill="none" xmlns="http://www.w3.org/2000/svg">
<path d="M15.74 14.05H20.99L19.22 22.9C18.14 23.72 16.88 24.35 15.44 24.79C14.02 25.21 12.52 25.42 10.94 25.42C8.82 25.42 6.96 25.04 5.36 24.28C3.78 23.5 2.55 22.41 1.67 21.01C0.81 19.61 0.38 18 0.38 16.18C0.38 13.76 0.94 11.6 2.06 9.7C3.18 7.78 4.75 6.28 6.77 5.2C8.79 4.12 11.11 3.58 13.73 3.58C17.89 3.58 20.94 4.87 22.88 7.45L18.62 10.81C17.94 9.97 17.19 9.38 16.37 9.04C15.55 8.68 14.58 8.5 13.46 8.5C12.04 8.5 10.79 8.82 9.71 9.46C8.65 10.08 7.83 10.94 7.25 12.04C6.67 13.14 6.38 14.39 6.38 15.79C6.38 17.23 6.85 18.38 7.79 19.24C8.73 20.08 10.05 20.5 11.75 20.5C12.77 20.5 13.7 20.33 14.54 19.99L15.74 14.05ZM42.7259 8.74L39.4859 25H34.0859L34.4159 23.47C33.1159 24.67 31.5459 25.27 29.7059 25.27C28.5059 25.27 27.3759 24.98 26.3159 24.4C25.2759 23.8 24.4359 22.94 23.7959 21.82C23.1559 20.7 22.8359 19.38 22.8359 17.86C22.8359 16.1 23.2259 14.51 24.0059 13.09C24.8059 11.65 25.8759 10.52 27.2159 9.7C28.5759 8.88 30.0559 8.47 31.6559 8.47C34.0159 8.47 35.6759 9.21 36.6359 10.69L37.0259 8.74H42.7259ZM31.6859 20.68C32.8259 20.68 33.7559 20.26 34.4759 19.42C35.1959 18.58 35.5559 17.49 35.5559 16.15C35.5559 15.19 35.2759 14.43 34.7159 13.87C34.1759 13.31 33.4259 13.03 32.4659 13.03C31.3259 13.03 30.3959 13.45 29.6759 14.29C28.9559 15.13 28.5959 16.23 28.5959 17.59C28.5959 18.55 28.8659 19.31 29.4059 19.87C29.9659 20.41 30.7259 20.68 31.6859 20.68ZM46.3953 8.74H52.0653L48.8253 25H43.1553L46.3953 8.74ZM50.0253 6.94C49.0453 6.94 48.2553 6.67 47.6553 6.13C47.0553 5.59 46.7553 4.92 46.7553 4.12C46.7553 3.18 47.0853 2.41 47.7453 1.81C48.4253 1.19 49.3153 0.879999 50.4153 0.879999C51.4153 0.879999 52.2153 1.14 52.8153 1.66C53.4153 2.16 53.7153 2.81 53.7153 3.61C53.7153 4.59 53.3753 5.39 52.6953 6.01C52.0153 6.63 51.1253 6.94 50.0253 6.94ZM65.911 8.47C67.691 8.47 69.111 8.95 70.171 9.91C71.251 10.85 71.791 12.21 71.791 13.99C71.791 14.65 71.721 15.32 71.581 16L69.781 25H64.081L65.761 16.54C65.841 16.2 65.881 15.84 65.881 15.46C65.881 14.02 65.131 13.3 63.631 13.3C62.631 13.3 61.811 13.61 61.171 14.23C60.531 14.83 60.081 15.74 59.821 16.96L58.201 25H52.501L55.741 8.74H61.141L60.811 10.42C61.511 9.76 62.301 9.27 63.181 8.95C64.061 8.63 64.971 8.47 65.911 8.47ZM81.4897 25.42C79.7497 25.42 78.0997 25.21 76.5397 24.79C74.9797 24.37 73.7097 23.83 72.7297 23.17L75.0697 18.73C76.1297 19.41 77.2597 19.93 78.4597 20.29C79.6597 20.63 80.8597 20.8 82.0597 20.8C83.1997 20.8 84.0797 20.64 84.6997 20.32C85.3397 19.98 85.6597 19.52 85.6597 18.94C85.6597 18.44 85.3697 18.05 84.7897 17.77C84.2297 17.49 83.3497 17.19 82.1497 16.87C80.7897 16.51 79.6597 16.15 78.7597 15.79C77.8597 15.41 77.0797 14.84 76.4197 14.08C75.7797 13.32 75.4597 12.32 75.4597 11.08C75.4597 9.58 75.8697 8.27 76.6897 7.15C77.5097 6.01 78.6797 5.13 80.1997 4.51C81.7197 3.89 83.4997 3.58 85.5397 3.58C87.0397 3.58 88.4397 3.74 89.7397 4.06C91.0397 4.36 92.1597 4.8 93.0997 5.38L90.9397 9.79C90.1197 9.27 89.2097 8.88 88.2097 8.62C87.2297 8.34 86.2197 8.2 85.1797 8.2C83.9997 8.2 83.0697 8.39 82.3897 8.77C81.7297 9.15 81.3997 9.64 81.3997 10.24C81.3997 10.76 81.6897 11.16 82.2697 11.44C82.8497 11.72 83.7497 12.02 84.9697 12.34C86.3297 12.68 87.4497 13.03 88.3297 13.39C89.2297 13.75 89.9997 14.3 90.6397 15.04C91.2797 15.78 91.5997 16.75 91.5997 17.95C91.5997 19.43 91.1797 20.74 90.3397 21.88C89.5197 23 88.3397 23.87 86.7997 24.49C85.2797 25.11 83.5097 25.42 81.4897 25.42ZM100.374 18.94C100.334 19.22 100.314 19.4 100.314 19.48C100.314 20.4 100.814 20.86 101.814 20.86C102.354 20.86 102.924 20.7 103.524 20.38L104.244 24.31C103.124 24.95 101.714 25.27 100.014 25.27C98.3335 25.27 96.9935 24.85 95.9935 24.01C95.0135 23.17 94.5235 22 94.5235 20.5C94.5235 19.92 94.5735 19.41 94.6735 18.97L95.7535 13.6H93.3535L94.2235 9.34H96.5935L97.4335 5.11H103.134L102.294 9.34H105.984L105.144 13.6H101.454L100.374 18.94ZM114.793 25.27C113.073 25.27 111.573 24.97 110.293 24.37C109.013 23.75 108.023 22.88 107.323 21.76C106.623 20.64 106.273 19.34 106.273 17.86C106.273 16.08 106.703 14.48 107.563 13.06C108.423 11.64 109.613 10.52 111.133 9.7C112.653 8.88 114.363 8.47 116.263 8.47C117.983 8.47 119.483 8.78 120.763 9.4C122.043 10 123.033 10.86 123.733 11.98C124.433 13.08 124.783 14.37 124.783 15.85C124.783 17.63 124.353 19.24 123.493 20.68C122.633 22.1 121.443 23.22 119.923 24.04C118.423 24.86 116.713 25.27 114.793 25.27ZM115.123 20.68C116.263 20.68 117.193 20.26 117.913 19.42C118.633 18.58 118.993 17.49 118.993 16.15C118.993 15.19 118.723 14.43 118.183 13.87C117.643 13.31 116.893 13.03 115.933 13.03C114.793 13.03 113.863 13.45 113.143 14.29C112.423 15.13 112.063 16.23 112.063 17.59C112.063 18.55 112.333 19.31 112.873 19.87C113.413 20.41 114.163 20.68 115.123 20.68ZM133.994 10.54C135.354 9.16 137.314 8.47 139.874 8.47L138.884 13.6C138.384 13.54 137.954 13.51 137.594 13.51C136.314 13.51 135.284 13.82 134.504 14.44C133.744 15.04 133.234 16 132.974 17.32L131.414 25H125.714L128.954 8.74H134.354L133.994 10.54ZM162.986 8.47C164.706 8.47 166.086 8.95 167.126 9.91C168.166 10.87 168.686 12.23 168.686 13.99C168.686 14.65 168.616 15.32 168.476 16L166.706 25H161.006L162.686 16.6C162.766 16.22 162.806 15.84 162.806 15.46C162.806 14.74 162.626 14.2 162.266 13.84C161.926 13.48 161.426 13.3 160.766 13.3C158.946 13.3 157.796 14.47 157.316 16.81L155.666 25H149.966L151.676 16.6C151.756 16.26 151.796 15.89 151.796 15.49C151.796 14.77 151.616 14.23 151.256 13.87C150.916 13.49 150.416 13.3 149.756 13.3C147.916 13.3 146.756 14.49 146.276 16.87L144.656 25H138.956L142.196 8.74H147.596L147.266 10.39C148.606 9.11 150.226 8.47 152.126 8.47C153.206 8.47 154.176 8.7 155.036 9.16C155.896 9.6 156.556 10.25 157.016 11.11C157.776 10.25 158.656 9.6 159.656 9.16C160.676 8.7 161.786 8.47 162.986 8.47Z" fill="#3A2664"/>
</svg>
